<svg width="43" height="43" xmlns="http://www.w3.org/2000/svg"><g fill="none" fill-rule="evenodd"><circle fill="#687089" cx="21.5" cy="21.5" r="21.5"/><path d="M21.538 26.216c1.822 0 3.225-1.15 3.225-2.685 0-1.276-.787-2.082-1.974-2.273v-.101c.939-.273 1.625-1.003 1.63-2.108.007-1.282-1.034-2.424-2.843-2.424-1.853 0-2.99 1.098-3.104 2.59h1.111c.095-1.029.813-1.594 1.917-1.594s1.758.698 1.758 1.555c0 .952-.749 1.625-1.802 1.625H20.37v.978h1.136c1.289 0 2.082.66 2.082 1.72 0 1.028-.857 1.72-2.063 1.72-1.18 0-2.005-.615-2.107-1.58h-1.105c.083 1.555 1.365 2.577 3.225 2.577z" fill="#FFF" fill-rule="nonzero"/></g></svg>